# xmcd CD database file
#
# Track frame offsets:
#	187
#	14160
#	25545
#	40605
#	54257
#	69007
#	88825
#	101565
#	116867
#	131212
#
# Disc length: 1904 seconds
#
# Revision: 3
# Processed by: cddbd v1.5.2PL0 Copyright (c) Steve Scherf et al.
# Submitted via: CDex 1.51
#
DISCID=7e076e0a
DTITLE=Run C&W - Row vs. Wade
DYEAR=1994
DGENRE=Country
TTITLE0=Let Me In
TTITLE1=Medley: Hot Corn, Cold Corn - I Like It Like That
TTITLE2=Reach Out, I'll Be There
TTITLE3=Hold What You've Got
TTITLE4=Signed, Sealed, Delivered (I'm Yours)
TTITLE5=Papa Was A Rolling Stone
TTITLE6=Spanish Harlem
TTITLE7=I Second That Emotion
TTITLE8=Chain Of Fools
TTITLE9=Bring It On Home To Me
EXTD=Russell Smith\nBernie Leadon\nJim Photoglo\nVince Melamed\n YEAR: 1994
EXTT0=
EXTT1=
EXTT2=
EXTT3=
EXTT4=
EXTT5=
EXTT6=
EXTT7=
EXTT8=
EXTT9=
PLAYORDER=
